<svg xmlns="http://www.w3.org/2000/svg" viewBox="0 0 450 250"><text transform="translate(186.9 215.45)" style="fill:var(--theme-bg); font-family:Avenir-Roman, Avenir; font-size:42.94px; letter-spacing:.08em;"><tspan x="0" y="0">U I Z L E T</tspan></text><path style="fill:var(--theme-bg);" d="M124.25,202.53c14.51,9.68,30.24,10.09,46.8,9.63-8.85,12.57-30.06,19.07-44.36,14.28-10.37-3.47-20.59-7.42-30.83-11.27-16.77-6.3-33.71-9.71-51.42-3.99-1.61,.52-3.53,.07-5.76-1.25,5.55-3.23,10.84-7.09,16.72-9.5,6.1-2.51,5.08-4.86,1.17-8.14-11.51-9.64-19.23-21.61-24.29-35.83-5.62-15.81-3.46-31.22,2-45.92,9.53-25.65,26.57-44.87,53.49-53.19,7.23-2.24,15.21-2.08,23.6-3.11-2.02-7.79-7.19-16.19,.55-23.54,4.97-4.72,10.49-8.85,15.76-13.24,.59,.53,1.18,1.06,1.78,1.59-.42,2.31-.82,4.63-1.26,6.93-3.22,16.84,4.76,30.32,13.13,43.65,8.81,14.02,17.95,27.84,26.59,41.96,11.51,18.81,7.62,37.03-3.48,54.34-9.87,15.4-23.18,27.39-40.17,36.6Zm6.69-116.52c-1.86,1.46-2.44,1.68-2.56,2.05-.35,1.15-.67,2.35-.74,3.55-.82,15.78-6.82,29.79-17.53,40.83-11.29,11.63-24.06,21.87-36.67,32.13-4.95,4.03-5.43,6.23-.55,10.61,8.14,7.31,16.97,12.87,27.58,15.81,16.67,4.62,36.92,.36,46.54-17.94,9.69-18.44,11.43-37.05,1.1-55.88-5.66-10.32-11.36-20.61-17.18-31.16ZM48.83,125.84c-.2,13.25,4.75,24.76,11.97,35.45,2.62,3.88,5.27,6.13,9.64,1.16,6.26-7.11,13.67-13.22,19.82-20.42,11.73-13.72,19.72-29.05,17.14-48.01-1.51-11.06-9.45-20.71-18.85-22.99-9.32-2.27-19.59,1.93-25.53,11.58-8.13,13.2-13.75,27.41-14.18,43.22Z" /><text transform="translate(186.83 164.02)" style="fill:var(--theme-bg); font-family:Avenir-Roman, Avenir; font-size:42.94px; letter-spacing:.08em;"><tspan x="0" y="0">U R A N</tspan></text></svg>